<?xml version="1.0" standalone="no"?>
<!DOCTYPE svg PUBLIC "-//W3C//DTD SVG 1.0//EN" "http://www.w3.org/TR/2001/REC-SVG-20010904/DTD/svg10.dtd">
<svg xmlns="http://www.w3.org/2000/svg" xmlns:xlink="http://www.w3.org/1999/xlink" id="body_1" width="128" height="128">

<defs>
    <radialGradient cx="66.63543%" cy="99.543495%" r="127.08041%" fx="66.63543%" fy="99.543495%" gradientUnits="objectBoundingBox" id="1">
        <stop offset="0%" stop-color="#000000" stop-opacity="1"/>
        <stop offset="100%" stop-color="#000000" stop-opacity="0"/>
    </radialGradient>
<mask id="296">
<path  transform="matrix(2.003784 0 0 1.4 27.98813 -17.4)"   d="M7.4929786 43.5C 7.4929786 44.16279 7.229407 44.799107 6.7607455 45.26777C 6.292084 45.73643 5.6557655 46 4.9929786 46C 4.3301916 46 3.6938727 45.73643 3.2252116 45.26777C 2.7565506 44.799107 2.4929786 44.16279 2.4929786 43.5C 2.4929786 42.83721 2.7565506 42.200893 3.2252116 41.73223C 3.6938727 41.26357 4.3301916 41 4.9929786 41C 5.6557655 41 6.292084 41.26357 6.7607455 41.73223C 7.229407 42.200893 7.4929786 42.83721 7.4929786 43.5z" fill="white"/>
</mask>
    <radialGradient cx="66.63543%" cy="99.543495%" r="127.08041%" fx="66.63543%" fy="99.543495%" gradientUnits="objectBoundingBox" id="837">
        <stop offset="0%" stop-color="#000000" stop-opacity="1"/>
        <stop offset="100%" stop-color="#000000" stop-opacity="0"/>
    </radialGradient>
<mask id="1134">
<path  transform="matrix(2.003784 0 0 1.4 -20.01187 -104.4)"   d="M7.4929786 43.5C 7.4929786 44.16279 7.229407 44.799107 6.7607455 45.26777C 6.292084 45.73643 5.6557655 46 4.9929786 46C 4.3301916 46 3.6938727 45.73643 3.2252116 45.26777C 2.7565506 44.799107 2.4929786 44.16279 2.4929786 43.5C 2.4929786 42.83721 2.7565506 42.200893 3.2252116 41.73223C 3.6938727 41.26357 4.3301916 41 4.9929786 41C 5.6557655 41 6.292084 41.26357 6.7607455 41.73223C 7.229407 42.200893 7.4929786 42.83721 7.4929786 43.5z" fill="white"/>
</mask>
    <linearGradient transform="matrix(1 0 0 1 0 0)"  id="1678" x1="25.058096" y1="47.02773" x2="25.058096" y2="39.999443">
        <stop stop-color="#000000" offset="0%"/>
        <stop stop-color="#000000" offset="100%"/>
    </linearGradient>
    <radialGradient cx="66.63543%" cy="99.543495%" r="127.08041%" fx="66.63543%" fy="99.543495%" gradientUnits="objectBoundingBox" id="1923">
        <stop offset="0%" stop-color="#000000" stop-opacity="1"/>
        <stop offset="100%" stop-color="#000000" stop-opacity="0"/>
    </radialGradient>
<mask id="2221">
<path  transform="matrix(2.003784 0 0 1.4 27.98813 -17.4)"   d="M7.4929786 43.5C 7.4929786 44.16279 7.229407 44.799107 6.7607455 45.26777C 6.292084 45.73643 5.6557655 46 4.9929786 46C 4.3301916 46 3.6938727 45.73643 3.2252116 45.26777C 2.7565506 44.799107 2.4929786 44.16279 2.4929786 43.5C 2.4929786 42.83721 2.7565506 42.200893 3.2252116 41.73223C 3.6938727 41.26357 4.3301916 41 4.9929786 41C 5.6557655 41 6.292084 41.26357 6.7607455 41.73223C 7.229407 42.200893 7.4929786 42.83721 7.4929786 43.5z" fill="white"/>
</mask>
    <radialGradient cx="66.63543%" cy="99.543495%" r="127.08041%" fx="66.63543%" fy="99.543495%" gradientUnits="objectBoundingBox" id="2763">
        <stop offset="0%" stop-color="#000000" stop-opacity="1"/>
        <stop offset="100%" stop-color="#000000" stop-opacity="0"/>
    </radialGradient>
<mask id="3061">
<path  transform="matrix(2.003784 0 0 1.4 -20.01187 -104.4)"   d="M7.4929786 43.5C 7.4929786 44.16279 7.229407 44.799107 6.7607455 45.26777C 6.292084 45.73643 5.6557655 46 4.9929786 46C 4.3301916 46 3.6938727 45.73643 3.2252116 45.26777C 2.7565506 44.799107 2.4929786 44.16279 2.4929786 43.5C 2.4929786 42.83721 2.7565506 42.200893 3.2252116 41.73223C 3.6938727 41.26357 4.3301916 41 4.9929786 41C 5.6557655 41 6.292084 41.26357 6.7607455 41.73223C 7.229407 42.200893 7.4929786 42.83721 7.4929786 43.5z" fill="white"/>
</mask>
    <linearGradient transform="matrix(1 0 0 1 0 0)"  id="3605" x1="25.058096" y1="47.02773" x2="25.058096" y2="39.999443">
        <stop stop-color="#000000" offset="0%"/>
        <stop stop-color="#000000" offset="100%"/>
    </linearGradient>
    <radialGradient cx="25%" cy="78.98986%" r="127.080574%" fx="25%" fy="78.98986%" gradientUnits="objectBoundingBox" id="3850">
        <stop offset="0%" stop-color="#CDF87E" stop-opacity="1"/>
        <stop offset="26.238%" stop-color="#A2E34F" stop-opacity="1"/>
        <stop offset="66.094%" stop-color="#68B723" stop-opacity="1"/>
        <stop offset="100%" stop-color="#1D7E0D" stop-opacity="1"/>
    </radialGradient>
<mask id="4277">
<path  transform="matrix(-6.6949153 2.0083338E-08 -0 -6.359722 88.52119 71.78333)"   d="M40 9C 40 16.953444 36.837135 24.58927 31.213203 30.213203C 25.58927 35.837135 17.953444 39 10 39C 2.0465567 39 -5.5892696 35.837135 -11.213203 30.213203C -16.837137 24.58927 -20 16.953444 -20 9C -20 1.0465568 -16.837137 -6.5892696 -11.213203 -12.213203C -5.5892696 -17.837137 2.0465567 -21 10 -21C 17.953444 -21 25.58927 -17.837137 31.213203 -12.213203C 36.837135 -6.5892696 40 1.0465568 40 9z" fill="white"/>
</mask>
</defs>

<g transform="matrix(1 0 0 1 0 0)">
	<g transform="matrix(1.1052632 0 0 1.1428571 50.973682 69.28571)">
        <path d="M38 40L43 40L43 47L38 47z" stroke="none" mask="url(#296)" fill="url(#1)"  />
        <path transform="matrix(-1 -0 -0 -1 0 0)"  d="M-10 -47L-5 -47L-5 -40L-10 -40z" stroke="none" mask="url(#1134)" fill="url(#837)"  />
        <path d="M10 40L38 40L38 47L10 47z" stroke="none" fill="url(#1678)" />
	</g>
	<g transform="matrix(1.1315789 0 0 1.1428571 -1.1578945 69.28571)">
        <path d="M38 40L43 40L43 47L38 47z" stroke="none" mask="url(#2221)" fill="url(#1923)"  />
        <path transform="matrix(-1 -0 -0 -1 0 0)"  d="M-10 -47L-5 -47L-5 -40L-10 -40z" stroke="none" mask="url(#3061)" fill="url(#2763)"  />
        <path d="M10 40L38 40L38 47L10 47z" stroke="none" fill="url(#3605)" />
	</g>
    <path d="M51.699154 3.3833334C 43.37978 3.3833334 36.635597 10.127045 36.635597 18.445833C 36.641 23.839514 39.530243 28.818611 44.210526 31.5L44.210526 31.5L10.517627 31.5C 8.292236 31.5 6.5006776 33.29143 6.5006776 35.516666L6.5006776 35.516666L6.5006776 65.29939C 9.182255 60.61944 14.161701 57.730423 19.555761 57.724995C 27.875137 57.724995 34.61932 64.468704 34.61932 72.78749C 34.61932 81.10628 27.875135 87.84999 19.55576 87.84999C 14.159264 87.84216 9.179249 84.94832 6.5006776 80.26383L6.5006776 80.26383L6.5006776 115.48366C 6.5006776 117.7089 8.292237 119.50033 10.517627 119.50033L10.517627 119.50033L44.210526 119.50033C 39.530243 116.81894 36.641026 111.83985 36.635597 106.44616C 36.635597 98.12738 43.37978 91.38367 51.699158 91.38367C 60.01853 91.38367 66.76272 98.12738 66.76272 106.44616C 66.75492 111.84228 63.860836 116.821945 59.176018 119.50033L59.176018 119.50033L90.48321 119.50033C 92.708595 119.50033 94.50016 117.7089 94.50016 115.48366L94.50016 115.48366L94.50016 80.26383C 97.178734 84.94832 102.158745 87.84215 107.555244 87.85C 115.874626 87.85 122.618805 81.106285 122.618805 72.7875C 122.618805 64.468704 115.874626 57.725 107.555244 57.725C 102.16119 57.7304 97.18173 60.619442 94.50016 65.29939L94.50016 65.29939L94.50016 35.516666C 94.50015 33.29143 92.708595 31.5 90.48321 31.5L90.48321 31.5L59.176014 31.5C 63.860832 28.821615 66.75487 23.841951 66.76271 18.445833C 66.76271 10.127045 60.018524 3.3833342 51.69915 3.3833342L51.69915 3.3833342L51.699154 3.3833334z" stroke="#0F5A00" stroke-width="1" mask="url(#4277)" fill="url(#3850)"  stroke-opacity="0.49411765" />
    <path d="M45.677998 32.499985L10.117 32.499985C 9.004305 32.499985 7.5086775 33.896156 7.5086775 35.008774L7.5086775 35.008774L7.5086775 61.795715C 10.590483 59.16889 14.505763 56.72272 18.555286 56.716C 27.98391 56.716 35.62732 63.35954 35.62732 72.7875C 35.62732 82.21546 28.583622 88.858 19.154997 88.858C 15.108447 88.85785 10.593797 86.42033 7.5086746 83.802L7.5086746 83.802L7.5086746 115.992004C 7.5086746 117.10462 9.004302 118.500336 10.116997 118.500336L10.116997 118.500336L40.706997 118.500336C 37.58451 114.837524 35.63372 111.00324 35.627 106.954C 35.627 97.526054 42.545414 90.38367 51.69915 90.38367C 60.770237 90.38367 67.770996 97.52605 67.770996 106.953995C 67.77084 111.00027 65.79019 114.87739 62.714996 118.50033L62.714996 118.50033L90.99122 118.50033C 92.10391 118.50033 93.50038 117.104614 93.500145 115.992L93.500145 115.992L93.500145 78.808L95.01322 78.808L95.01722 78.808C 97.04372 83.67124 102.294334 86.84038 107.563225 86.841995C 114.74712 86.841995 121.618774 80.84171 121.618774 72.78749C 121.618774 64.87636 115.28481 58.732994 107.563225 58.732994C 102.2962 58.738396 97.04929 61.90876 95.0251 66.77094C 95.0208 66.77092 95.0176 66.767044 95.01333 66.767044L95.01333 66.767044L93.500145 66.767044L93.500145 35.508774C 93.500145 33.523663 91.76467 32.499985 90.49122 32.499985L90.49122 32.499985L57.720676 32.499985L57.623325 28.217228L45.678 28.357798L45.677998 32.499985z" stroke="#000000" stroke-width="1" fill="none" stroke-opacity="0" />
    <path d="M46.2 31.117C 45.45446 31.117 43.830673 30.44034 41.468166 28.078001C 39.10566 25.71566 37.64442 22.051807 37.64442 18.447002C 37.64442 10.571979 44.006466 4.3931837 51.699154 4.3931837C 59.46804 4.3931837 65.7547 10.718992 65.7547 18.347004C 65.7547 21.95181 64.29346 25.715664 61.930954 28.078003C 59.568447 30.440342 57.794426 31.191002 57.147003 31.191002" stroke="#000000" stroke-width="1" fill="none" stroke-opacity="0" />
    <path d="M95.0155 66.77063C 95.26183 65.85137 95.587 64.91919 97.9495 62.55685C 100.31201 60.19451 103.65763 58.73337 108.1 58.73337C 115.31013 58.73337 121.7355 65.57788 121.7355 72.7875C 121.7355 79.997116 114.890594 86.841995 107.680466 86.841995C 104.07541 86.841995 100.312004 85.38033 97.94949 83.018C 95.58698 80.655655 95.24914 79.70604 95.00849 78.808" stroke="#000000" stroke-width="1" fill="none" stroke-opacity="0" />
    <path d="M7.6349573 84.074C 14.999297 89.79743 24.710566 92.06062 33.24504 81.553" stroke="#FFFFFF" stroke-width="1" stroke-linecap="square" fill="none" />
</g>
</svg>